<svg xmlns="http://www.w3.org/2000/svg" width="13.34" height="19.406" viewBox="0 0 13.34 19.406">
  <metadata><?xpacket begin="﻿" id="W5M0MpCehiHzreSzNTczkc9d"?>
<x:xmpmeta xmlns:x="adobe:ns:meta/" x:xmptk="Adobe XMP Core 5.6-c142 79.160924, 2017/07/13-01:06:39        ">
   <rdf:RDF xmlns:rdf="http://www.w3.org/1999/02/22-rdf-syntax-ns#">
      <rdf:Description rdf:about=""/>
   </rdf:RDF>
</x:xmpmeta>
                                                                                                    
                                                                                                    
                                                                                                    
                                                                                                    
                                                                                                    
                                                                                                    
                                                                                                    
                                                                                                    
                                                                                                    
                                                                                                    
                                                                                                    
                                                                                                    
                                                                                                    
                                                                                                    
                                                                                                    
                                                                                                    
                                                                                                    
                                                                                                    
                                                                                                    
                                                                                                    
                           
<?xpacket end="w"?></metadata>
<defs>
    <style>
      .cls-1 {
        fill: #fff;
        fill-rule: evenodd;
      }
    </style>
  </defs>
  <path id="_" data-name="¥" class="cls-1" d="M1154.92,453.179h3.67a1.443,1.443,0,1,0,0-2.886h-2l3.12-5.173a2.089,2.089,0,0,0,.36-1.184,1.3,1.3,0,0,0-.7-0.871,4.068,4.068,0,0,0-.55-0.3,0.9,0.9,0,0,0-.52-0.078,0.963,0.963,0,0,0-.5.26,2.972,2.972,0,0,0-.54.69q-0.96,1.637-1.92,3.263t-1.92,3.263l-3.96-6.6a1.257,1.257,0,0,0-2.08-.519,1.448,1.448,0,0,0-.63.884,1.607,1.607,0,0,0,.3,1.2c0.52,0.849,1.04,1.711,1.58,2.586s1.07,1.738,1.59,2.587h-2.06a1.443,1.443,0,0,0,.06,2.886h3.61v1.326h-3.67a1.444,1.444,0,0,0,.06,2.887h3.61v3.015a1.875,1.875,0,0,0,.36,1.353,1.747,1.747,0,0,0,1.2.337,1.66,1.66,0,0,0,1.25-.337,2.243,2.243,0,0,0,.28-1.353v-3.015h3.67a1.444,1.444,0,1,0,0-2.887h-3.67v-1.326Z" transform="translate(-1146.72 -442.688)"/>
</svg>
