<svg id="组_76" data-name="组 76" xmlns="http://www.w3.org/2000/svg" width="26" height="18" viewBox="0 0 26 18">
  <metadata><?xpacket begin="﻿" id="W5M0MpCehiHzreSzNTczkc9d"?>
<x:xmpmeta xmlns:x="adobe:ns:meta/" x:xmptk="Adobe XMP Core 5.6-c142 79.160924, 2017/07/13-01:06:39        ">
   <rdf:RDF xmlns:rdf="http://www.w3.org/1999/02/22-rdf-syntax-ns#">
      <rdf:Description rdf:about=""/>
   </rdf:RDF>
</x:xmpmeta>
                                                                                                    
                                                                                                    
                                                                                                    
                                                                                                    
                                                                                                    
                                                                                                    
                                                                                                    
                                                                                                    
                                                                                                    
                                                                                                    
                                                                                                    
                                                                                                    
                                                                                                    
                                                                                                    
                                                                                                    
                                                                                                    
                                                                                                    
                                                                                                    
                                                                                                    
                                                                                                    
                           
<?xpacket end="w"?></metadata>
<defs>
    <style>
      .cls-1, .cls-2 {
        fill: #fff;
        fill-rule: evenodd;
      }

      .cls-1 {
        opacity: 0.3;
      }

      .cls-2 {
        opacity: 0.96;
      }
    </style>
  </defs>
  <path id="形状_5_拷贝_3" data-name="形状 5 拷贝 3" class="cls-1" d="M546.348,459.929a0.682,0.682,0,0,0,.66-0.7,4.026,4.026,0,0,0-1.155-2.881,5.2,5.2,0,0,0-3-1.44,0.639,0.639,0,0,1-.4-0.176,0.493,0.493,0,0,1-.132-0.246,4.3,4.3,0,0,0,1.089-1.862,2.838,2.838,0,0,1,.3-0.633h0.033a3.658,3.658,0,0,0,.858-1.335,2.115,2.115,0,0,0-.1-1.827,8.672,8.672,0,0,0,.232-1.229,4.943,4.943,0,0,0,0-1.406,5.571,5.571,0,0,0-1.057-2.354,1.987,1.987,0,0,0-1.749-.913,2.116,2.116,0,0,0-1.453-.843,6.5,6.5,0,0,0-1.386-.071,4.572,4.572,0,0,0-2.641.809A4.127,4.127,0,0,0,534.926,445v0.07a7.082,7.082,0,0,0-.33,2.214,5.678,5.678,0,0,0,.231,1.686,2.118,2.118,0,0,0-.066,1.757,3.715,3.715,0,0,0,.858,1.335h0.033a4.323,4.323,0,0,1,.264.632,4.442,4.442,0,0,0,1.123,1.9,0.514,0.514,0,0,1-.1.211,0.642,0.642,0,0,1-.4.176,5.207,5.207,0,0,0-3,1.44,4.024,4.024,0,0,0-1.156,2.881,0.683,0.683,0,0,0,.66.7Zm-11.375,0a0.682,0.682,0,0,0,.66-0.7,4.026,4.026,0,0,0-1.155-2.881,5.2,5.2,0,0,0-3-1.44,0.639,0.639,0,0,1-.4-0.176,0.493,0.493,0,0,1-.132-0.246,4.3,4.3,0,0,0,1.089-1.862,2.838,2.838,0,0,1,.3-0.633h0.033a3.674,3.674,0,0,0,.859-1.335,2.122,2.122,0,0,0-.1-1.827,8.814,8.814,0,0,0,.231-1.229,4.943,4.943,0,0,0,0-1.406,5.583,5.583,0,0,0-1.057-2.354,1.987,1.987,0,0,0-1.749-.913,2.116,2.116,0,0,0-1.453-.843,6.5,6.5,0,0,0-1.387-.071,4.571,4.571,0,0,0-2.64.809A4.127,4.127,0,0,0,523.551,445v0.07a7.082,7.082,0,0,0-.33,2.214,5.678,5.678,0,0,0,.231,1.686,2.118,2.118,0,0,0-.066,1.757,3.715,3.715,0,0,0,.858,1.335h0.033a4.323,4.323,0,0,1,.264.632,4.442,4.442,0,0,0,1.123,1.9,0.514,0.514,0,0,1-.1.211,0.642,0.642,0,0,1-.4.176,5.215,5.215,0,0,0-3,1.44,4.027,4.027,0,0,0-1.155,2.881,0.683,0.683,0,0,0,.66.7Z" transform="translate(-521 -442)"/>
  <path id="形状_5" data-name="形状 5" class="cls-2" d="M540.661,459.929a0.683,0.683,0,0,0,.66-0.7,4.022,4.022,0,0,0-1.156-2.881,5.2,5.2,0,0,0-3-1.44,0.642,0.642,0,0,1-.4-0.176,0.5,0.5,0,0,1-.132-0.246,4.307,4.307,0,0,0,1.09-1.862,2.752,2.752,0,0,1,.3-0.633h0.033a3.671,3.671,0,0,0,.858-1.335,2.115,2.115,0,0,0-.1-1.827,8.67,8.67,0,0,0,.231-1.229,4.871,4.871,0,0,0,0-1.406,5.569,5.569,0,0,0-1.056-2.354,1.99,1.99,0,0,0-1.75-.913,2.116,2.116,0,0,0-1.452-.843,6.508,6.508,0,0,0-1.387-.071,4.572,4.572,0,0,0-2.641.809A4.131,4.131,0,0,0,529.239,445v0.07a7.024,7.024,0,0,0-.33,2.214,5.614,5.614,0,0,0,.231,1.686,2.114,2.114,0,0,0-.066,1.757,3.688,3.688,0,0,0,.858,1.335h0.033a4.435,4.435,0,0,1,.264.632,4.43,4.43,0,0,0,1.122,1.9,0.49,0.49,0,0,1-.1.211,0.639,0.639,0,0,1-.4.176,5.21,5.21,0,0,0-3,1.44A4.027,4.027,0,0,0,526.7,459.3a0.682,0.682,0,0,0,.66.7Z" transform="translate(-521 -442)"/>
</svg>
