<svg xmlns="http://www.w3.org/2000/svg" width="22" height="22" viewBox="0 0 22 22">
  <metadata><?xpacket begin="﻿" id="W5M0MpCehiHzreSzNTczkc9d"?>
<x:xmpmeta xmlns:x="adobe:ns:meta/" x:xmptk="Adobe XMP Core 5.6-c142 79.160924, 2017/07/13-01:06:39        ">
   <rdf:RDF xmlns:rdf="http://www.w3.org/1999/02/22-rdf-syntax-ns#">
      <rdf:Description rdf:about=""/>
   </rdf:RDF>
</x:xmpmeta>
                                                                                                    
                                                                                                    
                                                                                                    
                                                                                                    
                                                                                                    
                                                                                                    
                                                                                                    
                                                                                                    
                                                                                                    
                                                                                                    
                                                                                                    
                                                                                                    
                                                                                                    
                                                                                                    
                                                                                                    
                                                                                                    
                                                                                                    
                                                                                                    
                                                                                                    
                                                                                                    
                           
<?xpacket end="w"?></metadata>
<defs>
    <style>
      .cls-1 {
        fill: #fff;
        fill-rule: evenodd;
        opacity: 0.96;
      }
    </style>
  </defs>
  <path id="形状_1155" data-name="形状 1155" class="cls-1" d="M848.243,446.186c3.614,0,6.286-1.257,6.757-2.515h0c0-1.571-3.143-2.671-6.757-2.671-3.772,0-6.914,1.1-6.914,2.671h0C841.8,444.929,844.471,446.186,848.243,446.186Zm0,10.214a5.354,5.354,0,0,1-1.572-.157V459.7h1.572c3.771,0,6.757-.943,6.757-2.2v-2.829A11.916,11.916,0,0,1,848.243,456.4Zm0-4.557a5.354,5.354,0,0,1-1.572-.157v3.457c0.472,0,1.1.157,1.572,0.157,3.614,0,6.286-1.257,6.757-2.514v-2.672A11.916,11.916,0,0,1,848.243,451.843Zm0-4.557a13.505,13.505,0,0,1-6.914-1.729v1.729c3.142,0.314,5.971,1.414,6.128,3.457h0.629c3.614,0,6.285-1.257,6.757-2.514v-2.672A12.27,12.27,0,0,1,848.243,447.286Zm-8.486,5.971c3.614,0,6.286-1.257,6.757-2.514h0c0-1.414-2.985-2.672-6.757-2.672-3.614.158-6.757,1.258-6.757,2.672h0C833.471,452.157,836.143,453.257,839.757,453.257Zm0,5.029c3.614,0,6.286-1.257,6.757-2.515v-2.828c-1.414,1.1-3.771,1.728-6.757,1.728A11.562,11.562,0,0,1,833,452.943v2.828C833.471,457.029,836.143,458.286,839.757,458.286Zm0,1.414c-2.828,0-5.343-.629-6.757-1.729V460.8c0,1.257,3.143,2.2,6.757,2.2s6.757-.943,6.757-2.2v-2.829A12.457,12.457,0,0,1,839.757,459.7Z" transform="translate(-833 -441)"/>
</svg>
