<svg xmlns="http://www.w3.org/2000/svg" viewBox="0 0 29 25.16"><defs><style>.cls-1{fill:#606266;opacity:0.4;}</style></defs><title>资源 3</title><g id="图层_2" data-name="图层 2"><g id="图层_1-2" data-name="图层 1"><path class="cls-1" d="M14.3,8l4.11,4.1v-.26a3.91,3.91,0,0,0-4-4C14.43,8,14.43,8,14.3,8ZM8.61,9l2,2v.93a3.91,3.91,0,0,0,4,4,2.59,2.59,0,0,0,.92-.13l2,2a5.67,5.67,0,0,1-2.91.8A6.55,6.55,0,0,1,8,11.92,7.21,7.21,0,0,1,8.61,9ZM1.32,1.72,4.37,4.77l.53.53A14.31,14.31,0,0,0,0,11.92a15.61,15.61,0,0,0,14.57,9.93,17.47,17.47,0,0,0,5.82-1.06l.53.53,3.84,3.84,1.72-1.72L3.05,0ZM14.57,5.3a6.56,6.56,0,0,1,6.62,6.62,4.92,4.92,0,0,1-.53,2.38l3.84,3.84A16.11,16.11,0,0,0,29,11.92,15.6,15.6,0,0,0,14.43,2a17.75,17.75,0,0,0-5.29.92l2.91,2.92A5.69,5.69,0,0,1,14.57,5.3Z"/></g></g></svg>