<svg xmlns="http://www.w3.org/2000/svg" viewBox="0 0 29 19.77"><defs><style>.cls-1{fill:#606266;opacity:0.4;}</style></defs><title>资源 1</title><g id="图层_2" data-name="图层 2"><g id="图层_1-2" data-name="图层 1"><path class="cls-1" d="M14.5,5.93a3.89,3.89,0,0,0-3.95,4,3.88,3.88,0,0,0,3.95,3.95,3.88,3.88,0,0,0,3.95-3.95A3.89,3.89,0,0,0,14.5,5.93Zm0,10.55A6.53,6.53,0,0,1,7.91,9.89a6.59,6.59,0,0,1,13.18,0A6.53,6.53,0,0,1,14.5,16.48ZM14.5,0A15.53,15.53,0,0,0,0,9.89a15.58,15.58,0,0,0,29,0A15.53,15.53,0,0,0,14.5,0Z"/></g></g></svg>